<svg width="18" height="16" viewBox="0 0 18 16" fill="none" xmlns="http://www.w3.org/2000/svg">
<path d="M8.86918 5.94076L8.86976 5.94072C10.1124 5.86259 11.1414 6.88648 11.0594 8.13117M8.86918 5.94076L7.19331 7.88236C7.1213 8.97554 8.02465 9.87561 9.11783 9.80688L9.13325 10.0564C9.13334 10.0564 9.13343 10.0564 9.13352 10.0564C10.1594 9.99283 10.9923 9.1628 11.0594 8.13117M8.86918 5.94076C7.84151 6.00778 7.00751 6.83664 6.94382 7.86647L8.86918 5.94076ZM11.0594 8.13117L10.81 8.11474L11.0594 8.13095C11.0594 8.13103 11.0594 8.1311 11.0594 8.13117ZM0.925481 7.47014L0.925192 7.47052C0.691603 7.78197 0.691603 8.21513 0.925192 8.52658L0.925394 8.52685C3.0053 11.2923 5.84517 13.0189 9 13.0189C12.1548 13.0189 14.9946 11.2923 17.0745 8.53024L17.0748 8.52985C17.3084 8.2184 17.3084 7.78525 17.0748 7.47379L17.0746 7.47353C14.9947 4.70809 12.1548 2.98145 9 2.98145C5.8452 2.98145 3.00537 4.70805 0.925481 7.47014ZM5.89142 7.79657L5.89143 7.79649C5.9883 6.24651 7.24632 4.98849 8.7963 4.89162L8.7964 4.89161C10.6756 4.7734 12.2268 6.32161 12.1086 8.20381C12.0085 9.75063 10.7503 11.0087 9.20346 11.1088C7.32434 11.2269 5.77322 9.67872 5.89142 7.79657Z" fill="#9F9F9F" stroke="white" stroke-width="0.5"/>
</svg>
